<?xml version="1.0" encoding="UTF-8"?>
<svg id="Layer_1" data-name="Layer 1" xmlns="http://www.w3.org/2000/svg" viewBox="0 0 20 20">
  <path d="M13.88,15.82c-.5,0-.99-.19-1.37-.57l-2.51-2.51-2.51,2.51c-.76.76-1.99.76-2.74,0-.76-.76-.76-1.98,0-2.74l2.51-2.51-2.51-2.51c-.76-.76-.76-1.98,0-2.74.76-.76,1.99-.76,2.74,0l2.51,2.51,2.51-2.51c.76-.76,1.99-.76,2.74,0,.76.76.76,1.98,0,2.74l-2.51,2.51,2.51,2.51c.76.76.76,1.98,0,2.74-.38.38-.87.57-1.37.57ZM17.27,20H2.73c-1.5,0-2.73-1.22-2.73-2.73V2.73C0,1.22,1.22,0,2.73,0h14.55c1.5,0,2.73,1.22,2.73,2.73v14.55c0,1.5-1.22,2.73-2.73,2.73ZM2.73,1.82c-.5,0-.91.41-.91.91v14.55c0,.5.41.91.91.91h14.55c.5,0,.91-.41.91-.91V2.73c0-.5-.41-.91-.91-.91H2.73Z"/>
</svg>