<?xml version="1.0" encoding="UTF-8"?>
<svg id="Layer_1" data-name="Layer 1" xmlns="http://www.w3.org/2000/svg" viewBox="0 0 20 20">
  <path d="M8.55,15.82c-.51,0-1.01-.2-1.37-.57l-3.88-3.88c-.76-.76-.76-1.98,0-2.74.76-.76,1.99-.76,2.74,0l2.41,2.41,5.42-6.2c.71-.8,1.93-.89,2.74-.18.81.71.89,1.93.18,2.74l-6.79,7.76c-.35.4-.86.64-1.4.66-.02,0-.04,0-.06,0ZM17.27,20H2.73c-1.5,0-2.73-1.22-2.73-2.73V2.73C0,1.22,1.22,0,2.73,0h14.55c1.5,0,2.73,1.22,2.73,2.73v14.55c0,1.5-1.22,2.73-2.73,2.73ZM2.73,1.82c-.5,0-.91.41-.91.91v14.55c0,.5.41.91.91.91h14.55c.5,0,.91-.41.91-.91V2.73c0-.5-.41-.91-.91-.91H2.73Z"/>
</svg>